<svg xmlns="http://www.w3.org/2000/svg" xmlns:xlink="http://www.w3.org/1999/xlink" width="1080" zoomAndPan="magnify" viewBox="0 0 810 809.999993" height="1080" preserveAspectRatio="xMidYMid meet" version="1.0"><defs><clipPath id="65ff239579"><path d="M 55.074219 284.585938 L 463.824219 284.585938 L 463.824219 754.835938 L 55.074219 754.835938 Z M 55.074219 284.585938 " clip-rule="nonzero"/></clipPath><clipPath id="17bd91bd1a"><path d="M 364.152344 55.40625 L 754.902344 55.40625 L 754.902344 554.90625 L 364.152344 554.90625 Z M 364.152344 55.40625 " clip-rule="nonzero"/></clipPath></defs><g clip-path="url(#65ff239579)"><path fill="#f0ece9" d="M 382.882812 601.328125 C 378.375 601.328125 374.574219 604.332031 373.113281 608.59375 C 358.832031 649.984375 318.878906 672.851562 267.445312 672.851562 C 192.480469 672.851562 147.132812 616.183594 147.132812 519.433594 C 147.132812 422.992188 192.480469 366.324219 267.140625 366.324219 C 319.769531 366.324219 360.589844 393.699219 374.015625 440.339844 C 375.3125 444.835938 379.222656 448.066406 383.894531 448.066406 C 383.894531 448.066406 440.449219 448.097656 458.769531 448.066406 C 461.84375 448.054688 464.246094 445.335938 463.847656 442.292969 C 451.871094 350.703125 369.640625 284.585938 267.140625 284.585938 C 136.394531 284.585938 55.175781 374.695312 55.175781 519.742188 C 55.175781 664.59375 136.519531 754.589844 267.445312 754.589844 C 370.316406 754.589844 449.0625 695.480469 463.824219 607.316406 C 464.347656 604.207031 461.914062 601.335938 458.757812 601.328125 Z M 382.882812 601.328125 " fill-opacity="1" fill-rule="nonzero"/></g><g clip-path="url(#17bd91bd1a)"><path fill="#f0ece9" d="M 608.011719 271.523438 L 553.726562 259.542969 C 495.1875 246.625 472.699219 227.140625 472.699219 196.554688 C 472.699219 157.78125 502.546875 131.425781 559.535156 131.425781 C 607.023438 131.425781 638.085938 153.484375 649.171875 185.242188 C 649.984375 187.566406 650.734375 189.941406 651.277344 192.40625 C 651.773438 194.6875 652.175781 196.75 652.503906 198.574219 C 653.425781 203.726562 657.929688 207.40625 663.160156 207.40625 L 733.207031 207.40625 C 736.210938 207.40625 739.101562 206.160156 741.140625 203.945312 C 743.191406 201.742188 744.246094 198.777344 744.027344 195.78125 C 738.015625 111.84375 664.832031 55.445312 561.910156 55.445312 C 450.121094 55.445312 375.007812 115.046875 375.007812 203.75 C 375.007812 271.523438 426.511719 312.511719 512.199219 331.105469 L 573.339844 344.664062 C 633.855469 358.21875 657.222656 377.445312 657.222656 410.234375 C 657.222656 448.378906 619.460938 478.769531 563.863281 478.769531 C 512.804688 478.769531 474.921875 457.355469 461.648438 425.984375 C 459.433594 420.394531 457.890625 415.171875 456.871094 411.113281 C 455.632812 406.242188 451.324219 402.789062 446.3125 402.789062 L 375.007812 402.789062 C 371.980469 402.789062 369.070312 404.058594 367.019531 406.292969 C 364.96875 408.53125 363.945312 411.515625 364.195312 414.542969 C 371.339844 499.71875 447.65625 554.75 558.632812 554.75 C 679.703125 554.75 754.914062 496.527344 754.914062 402.789062 C 754.914062 333.429688 703.832031 292.332031 608.011719 271.523438 Z M 608.011719 271.523438 " fill-opacity="1" fill-rule="nonzero"/></g></svg>