<svg xmlns="http://www.w3.org/2000/svg" xmlns:xlink="http://www.w3.org/1999/xlink" width="1080" zoomAndPan="magnify" viewBox="0 0 810 809.999993" height="1080" preserveAspectRatio="xMidYMid meet" version="1.0"><defs><clipPath id="eafcebbc81"><path d="M 126.5625 0 L 683.4375 0 C 753.335938 0 810 56.664062 810 126.5625 L 810 683.4375 C 810 753.335938 753.335938 810 683.4375 810 L 126.5625 810 C 56.664062 810 0 753.335938 0 683.4375 L 0 126.5625 C 0 56.664062 56.664062 0 126.5625 0 Z M 126.5625 0 " clip-rule="nonzero"/></clipPath><clipPath id="ed75efd4e5"><path d="M 84.136719 294.585938 L 458.941406 294.585938 L 458.941406 725.785156 L 84.136719 725.785156 Z M 84.136719 294.585938 " clip-rule="nonzero"/></clipPath><clipPath id="99649ddc9d"><path d="M 367.546875 84.4375 L 725.84375 84.4375 L 725.84375 542.457031 L 367.546875 542.457031 Z M 367.546875 84.4375 " clip-rule="nonzero"/></clipPath></defs><rect x="-81" width="972" fill="#ffffff" y="-80.999999" height="971.999992" fill-opacity="1"/><rect x="-81" width="972" fill="#582308" y="-80.999999" height="971.999992" fill-opacity="1"/><g clip-path="url(#eafcebbc81)"><rect x="-81" width="972" fill="#ffffff" y="-80.999999" height="971.999992" fill-opacity="1"/></g><g clip-path="url(#ed75efd4e5)"><path fill="#4e3a3a" d="M 384.71875 585.023438 C 380.585938 585.023438 377.101562 587.777344 375.761719 591.683594 C 362.664062 629.636719 326.03125 650.605469 278.867188 650.605469 C 210.128906 650.605469 168.550781 598.644531 168.550781 509.929688 C 168.550781 421.496094 210.128906 369.539062 278.585938 369.539062 C 326.847656 369.539062 364.277344 394.636719 376.585938 437.40625 C 377.777344 441.527344 381.363281 444.488281 385.648438 444.488281 C 385.648438 444.488281 437.503906 444.515625 454.300781 444.488281 C 457.121094 444.480469 459.324219 441.988281 458.957031 439.195312 C 447.976562 355.210938 372.578125 294.585938 278.585938 294.585938 C 158.703125 294.585938 84.230469 377.210938 84.230469 510.210938 C 84.230469 643.035156 158.816406 725.558594 278.867188 725.558594 C 373.195312 725.558594 445.402344 671.359375 458.941406 590.511719 C 459.417969 587.664062 457.1875 585.03125 454.292969 585.023438 Z M 384.71875 585.023438 " fill-opacity="1" fill-rule="nonzero"/></g><g clip-path="url(#99649ddc9d)"><path fill="#4e3a3a" d="M 591.152344 282.609375 L 541.375 271.621094 C 487.699219 259.777344 467.074219 241.910156 467.074219 213.863281 C 467.074219 178.3125 494.445312 154.144531 546.699219 154.144531 C 590.246094 154.144531 618.730469 174.371094 628.894531 203.492188 C 629.640625 205.621094 630.328125 207.800781 630.824219 210.0625 C 631.28125 212.152344 631.648438 214.042969 631.949219 215.714844 C 632.792969 220.441406 636.925781 223.816406 641.722656 223.816406 L 705.949219 223.816406 C 708.707031 223.816406 711.355469 222.671875 713.226562 220.640625 C 715.105469 218.621094 716.070312 215.90625 715.871094 213.15625 C 710.359375 136.191406 643.253906 84.472656 548.878906 84.472656 C 446.375 84.472656 377.5 139.125 377.5 220.460938 C 377.5 282.609375 424.726562 320.191406 503.296875 337.242188 L 559.359375 349.671875 C 614.847656 362.105469 636.277344 379.730469 636.277344 409.800781 C 636.277344 444.773438 601.652344 472.644531 550.671875 472.644531 C 503.851562 472.644531 469.117188 453.007812 456.945312 424.242188 C 454.914062 419.117188 453.5 414.328125 452.5625 410.605469 C 451.429688 406.136719 447.476562 402.972656 442.878906 402.972656 L 377.5 402.972656 C 374.722656 402.972656 372.054688 404.136719 370.171875 406.1875 C 368.292969 408.238281 367.355469 410.976562 367.585938 413.75 C 374.132812 491.851562 444.113281 542.316406 545.875 542.316406 C 656.890625 542.316406 725.855469 488.925781 725.855469 402.972656 C 725.855469 339.371094 679.015625 301.691406 591.152344 282.609375 Z M 591.152344 282.609375 " fill-opacity="1" fill-rule="nonzero"/></g></svg>